<svg viewBox="0 0 500 600" xmlns="http://www.w3.org/2000/svg">
  <!-- Background -->
  <rect x="50" y="50" width="400" height="500" rx="10" fill="#242629" stroke="#343639" stroke-width="2"/>
  
  <!-- Resume Header -->
  <rect x="80" y="80" width="340" height="80" rx="5" fill="#7F5AF0" opacity="0.9"/>
  <circle cx="130" cy="120" r="30" fill="#FFFFFE"/>
  <rect x="180" y="100" width="200" height="15" rx="3" fill="#FFFFFE" opacity="0.9"/>
  <rect x="180" y="125" width="150" height="10" rx="3" fill="#FFFFFE" opacity="0.7"/>
  <rect x="180" y="145" width="120" height="10" rx="3" fill="#FFFFFE" opacity="0.5"/>
  
  <!-- Resume Sections -->
  <rect x="80" y="180" width="340" height="40" rx="3" fill="#343639"/>
  <rect x="95" y="190" width="120" height="20" rx="3" fill="#64FFDA" opacity="0.8"/>
  
  <!-- Experience Section -->
  <rect x="80" y="240" width="340" height="100" rx="3" fill="#242629" stroke="#343639" stroke-width="1"/>
  <rect x="95" y="255" width="150" height="15" rx="3" fill="#FFFFFE" opacity="0.8"/>
  <rect x="95" y="280" width="120" height="10" rx="3" fill="#BEC2C8" opacity="0.6"/>
  <rect x="95" y="300" width="300" height="10" rx="3" fill="#94A1B2" opacity="0.4"/>
  <rect x="95" y="320" width="280" height="10" rx="3" fill="#94A1B2" opacity="0.4"/>
  
  <!-- Skills Section -->
  <rect x="80" y="360" width="340" height="80" rx="3" fill="#242629" stroke="#343639" stroke-width="1"/>
  <rect x="95" y="375" width="80" height="15" rx="3" fill="#FFFFFE" opacity="0.8"/>
  
  <!-- Skill Pills -->
  <rect x="95" y="400" width="70" height="25" rx="12.5" fill="#64FFDA" opacity="0.7"/>
  <rect x="175" y="400" width="90" height="25" rx="12.5" fill="#7F5AF0" opacity="0.7"/>
  <rect x="275" y="400" width="60" height="25" rx="12.5" fill="#FF6B6B" opacity="0.7"/>
  
  <!-- Education Section -->
  <rect x="80" y="460" width="340" height="70" rx="3" fill="#242629" stroke="#343639" stroke-width="1"/>
  <rect x="95" y="475" width="120" height="15" rx="3" fill="#FFFFFE" opacity="0.8"/>
  <rect x="95" y="500" width="200" height="10" rx="3" fill="#BEC2C8" opacity="0.6"/>
  <rect x="95" y="520" width="150" height="10" rx="3" fill="#94A1B2" opacity="0.4"/>
  
  <!-- Edit Icons -->
  <circle cx="400" cy="190" r="10" fill="#64FFDA" opacity="0.8"/>
  <circle cx="400" cy="270" r="10" fill="#64FFDA" opacity="0.8"/>
  <circle cx="400" cy="375" r="10" fill="#64FFDA" opacity="0.8"/>
  <circle cx="400" cy="475" r="10" fill="#64FFDA" opacity="0.8"/>
  
  <!-- Decorative Elements -->
  <rect x="30" y="150" width="15" height="150" rx="7.5" fill="#7F5AF0" opacity="0.3"/>
  <rect x="30" y="320" width="15" height="80" rx="7.5" fill="#7F5AF0" opacity="0.5"/>
  <rect x="30" y="420" width="15" height="100" rx="7.5" fill="#7F5AF0" opacity="0.7"/>
  
  <rect x="455" y="120" width="15" height="100" rx="7.5" fill="#64FFDA" opacity="0.3"/>
  <rect x="455" y="240" width="15" height="150" rx="7.5" fill="#64FFDA" opacity="0.5"/>
  <rect x="455" y="410" width="15" height="80" rx="7.5" fill="#64FFDA" opacity="0.7"/>
</svg>
