<svg viewBox="0 0 500 600" xmlns="http://www.w3.org/2000/svg">
  <!-- Full Background -->
  <rect x="0" y="0" width="500" height="600" fill="#16161A"/>
  
  <!-- Background Decorative Elements -->
  <circle cx="120" cy="120" r="80" fill="#7F5AF0" opacity="0.1"/>
  <circle cx="400" cy="500" r="100" fill="#64FFDA" opacity="0.1"/>
  <path d="M450,100 Q500,200 450,300 Q400,400 450,500 L500,500 L500,100 Z" fill="#FF6B6B" opacity="0.1"/>
  
  <!-- Resume Card -->
  <rect x="100" y="100" width="300" height="400" rx="10" fill="#242629" stroke="#343639" stroke-width="2"/>
  
  <!-- Resume Header -->
  <rect x="120" y="120" width="260" height="70" rx="5" fill="#7F5AF0" opacity="0.9"/>
  <circle cx="155" cy="155" r="25" fill="#FFFFFE"/>
  <rect x="195" y="140" width="160" height="12" rx="3" fill="#FFFFFE" opacity="0.9"/>
  <rect x="195" y="160" width="120" height="8" rx="3" fill="#FFFFFE" opacity="0.7"/>
  <rect x="195" y="175" width="100" height="8" rx="3" fill="#FFFFFE" opacity="0.5"/>
  
  <!-- Resume Sections -->
  <rect x="120" y="210" width="260" height="35" rx="3" fill="#343639"/>
  <rect x="130" y="218" width="100" height="18" rx="3" fill="#64FFDA" opacity="0.8"/>
  
  <!-- Experience Section -->
  <rect x="120" y="255" width="260" height="85" rx="3" fill="#242629" stroke="#343639" stroke-width="1"/>
  <rect x="130" y="265" width="120" height="12" rx="3" fill="#FFFFFE" opacity="0.8"/>
  <rect x="130" y="285" width="100" height="8" rx="3" fill="#BEC2C8" opacity="0.6"/>
  <rect x="130" y="300" width="230" height="8" rx="3" fill="#94A1B2" opacity="0.4"/>
  <rect x="130" y="315" width="210" height="8" rx="3" fill="#94A1B2" opacity="0.4"/>
  
  <!-- Skills Section -->
  <rect x="120" y="350" width="260" height="70" rx="3" fill="#242629" stroke="#343639" stroke-width="1"/>
  <rect x="130" y="360" width="70" height="12" rx="3" fill="#FFFFFE" opacity="0.8"/>
  
  <!-- Skill Pills - Different arrangement -->
  <rect x="130" y="380" width="60" height="23" rx="11.5" fill="#64FFDA" opacity="0.7"/>
  <rect x="200" y="380" width="75" height="23" rx="11.5" fill="#7F5AF0" opacity="0.7"/>
  <rect x="130" y="410" width="50" height="23" rx="11.5" fill="#FF6B6B" opacity="0.7"/>
  <rect x="190" y="410" width="65" height="23" rx="11.5" fill="#64FFDA" opacity="0.7"/>
  <rect x="265" y="410" width="50" height="23" rx="11.5" fill="#7F5AF0" opacity="0.7"/>
  
  <!-- Summary Section (Different from original) -->
  <rect x="120" y="430" width="260" height="60" rx="3" fill="#242629" stroke="#343639" stroke-width="1"/>
  <rect x="130" y="440" width="90" height="12" rx="3" fill="#FFFFFE" opacity="0.8"/>
  <rect x="130" y="460" width="230" height="8" rx="3" fill="#BEC2C8" opacity="0.6"/>
  <rect x="130" y="475" width="190" height="8" rx="3" fill="#94A1B2" opacity="0.4"/>
  
  <!-- Interactive Elements -->
  <circle cx="360" cy="223" r="8" fill="#64FFDA" opacity="0.8"/>
  <circle cx="360" cy="275" r="8" fill="#64FFDA" opacity="0.8"/>
  <circle cx="360" cy="365" r="8" fill="#64FFDA" opacity="0.8"/>
  <circle cx="360" cy="445" r="8" fill="#64FFDA" opacity="0.8"/>
  
  <!-- Decorative Elements - Different pattern -->
  <rect x="70" y="150" width="12" height="80" rx="6" fill="#7F5AF0" opacity="0.4"/>
  <rect x="70" y="250" width="12" height="120" rx="6" fill="#7F5AF0" opacity="0.6"/>
  <rect x="70" y="390" width="12" height="70" rx="6" fill="#7F5AF0" opacity="0.8"/>
  
  <rect x="418" y="150" width="12" height="70" rx="6" fill="#64FFDA" opacity="0.4"/>
  <rect x="418" y="240" width="12" height="100" rx="6" fill="#64FFDA" opacity="0.6"/>
  <rect x="418" y="360" width="12" height="90" rx="6" fill="#64FFDA" opacity="0.8"/>
  
  <!-- Additional Decorative Elements -->
  <circle cx="250" cy="530" r="30" fill="#242629" stroke="#7F5AF0" stroke-width="2"/>
  <path d="M235,530 L245,540 L265,520" stroke="#7F5AF0" stroke-width="3" fill="none"/>
  
  <circle cx="180" cy="50" r="15" fill="#242629" stroke="#64FFDA" stroke-width="2"/>
  <rect x="175" y="45" width="10" height="10" rx="2" fill="none" stroke="#64FFDA" stroke-width="2"/>
  
  <circle cx="320" cy="50" r="15" fill="#242629" stroke="#FF6B6B" stroke-width="2"/>
  <path d="M315,45 L325,55 M325,45 L315,55" stroke="#FF6B6B" stroke-width="2"/>
</svg>
